<?xml version="1.0" standalone="no"?>
<!DOCTYPE svg PUBLIC "-//W3C//DTD SVG 20010904//EN"
 "http://www.w3.org/TR/2001/REC-SVG-20010904/DTD/svg10.dtd">
<svg version="1.0" xmlns="http://www.w3.org/2000/svg"
 width="200.000000pt" height="200.000000pt" viewBox="0 0 200.000000 200.000000"
 preserveAspectRatio="xMidYMid meet">
<metadata>
Created by potrace 1.11, written by Peter Selinger 2001-2013
</metadata>
<g transform="translate(0.000000,200.000000) scale(0.100000,-0.100000)"
fill="#000000" stroke="none">
<path d="M997 1727 c-49 -37 -49 -187 0 -224 24 -18 50 1 63 45 28 101 -13
217 -63 179z"/>
<path d="M800 1641 c-18 -35 -11 -71 20 -103 28 -28 32 -29 53 -15 31 20 35
84 7 115 -26 27 -66 29 -80 3z"/>
<path d="M1150 1633 c-27 -35 -24 -90 7 -110 21 -14 25 -13 53 15 31 32 38 68
20 103 -15 28 -55 24 -80 -8z"/>
<path d="M692 1574 c-42 -29 -17 -104 35 -104 18 0 53 37 53 55 0 17 -43 65
-57 65 -5 0 -19 -7 -31 -16z"/>
<path d="M1282 1573 c-34 -30 -33 -78 3 -95 57 -26 105 60 53 96 -28 20 -31
20 -56 -1z"/>
<path d="M586 1484 c-30 -30 -13 -74 29 -74 27 0 45 18 45 45 0 42 -44 59 -74
29z"/>
<path d="M1388 1489 c-36 -21 -16 -79 27 -79 42 0 59 44 29 74 -18 18 -32 20
-56 5z"/>
<path d="M881 1425 c-30 -9 -77 -28 -104 -43 -63 -34 -155 -125 -187 -185 -23
-43 -23 -46 -7 -71 23 -34 60 -34 84 0 43 63 120 136 168 160 61 29 104 26
151 -11 l28 -23 31 23 c50 38 88 41 149 11 49 -24 126 -96 169 -160 21 -31 57
-34 82 -6 23 26 15 54 -37 124 -52 70 -138 137 -216 167 -75 28 -233 36 -311
14z"/>
<path d="M451 1362 c-69 -70 -125 -155 -161 -239 -33 -77 -60 -108 -113 -126
-56 -18 -69 -42 -38 -68 13 -10 31 -19 41 -19 35 0 72 -44 119 -143 33 -68 71
-127 113 -177 91 -106 128 -121 162 -67 8 12 3 26 -22 59 -18 24 -50 77 -70
118 -49 99 -50 152 -4 209 18 22 32 43 32 46 0 3 -14 24 -32 46 -25 31 -32 49
-32 87 -1 55 42 154 98 228 41 53 43 64 18 87 -30 28 -51 20 -111 -41z"/>
<path d="M1467 1402 c-23 -26 -22 -33 17 -83 39 -52 79 -128 96 -184 15 -51 1
-111 -35 -145 -31 -29 -31 -41 0 -70 36 -34 50 -94 35 -145 -17 -56 -62 -143
-99 -189 -36 -45 -38 -57 -13 -79 27 -25 44 -21 89 18 63 54 131 150 179 251
42 90 80 134 114 134 10 0 28 9 41 19 31 25 18 49 -36 68 -42 14 -95 59 -95
79 0 50 -153 277 -219 323 -36 26 -53 26 -74 3z"/>
<path d="M929 1201 c-68 -27 -112 -64 -145 -123 -24 -44 -29 -65 -29 -123 0
-60 5 -78 31 -125 35 -62 109 -120 154 -120 33 0 60 28 60 61 0 33 -9 43 -56
67 -54 27 -101 83 -110 127 -21 114 44 209 159 230 20 4 37 11 37 16 0 15 -52
9 -101 -10z"/>
<path d="M1047 1182 c-18 -19 -22 -59 -9 -78 4 -6 25 -21 47 -32 106 -54 143
-157 94 -259 -23 -48 -79 -87 -141 -98 -56 -11 -48 -29 9 -21 102 14 196 98
224 199 26 96 -20 215 -106 274 -53 37 -94 42 -118 15z"/>
<path d="M949 1021 c-21 -22 -29 -39 -29 -66 0 -51 44 -95 95 -95 51 0 95 44
95 95 0 27 -8 44 -29 66 -41 40 -91 40 -132 0z"/>
<path d="M590 790 c-11 -11 -20 -26 -20 -34 0 -30 88 -141 147 -187 99 -76
156 -94 298 -94 102 0 129 4 177 23 79 32 170 103 218 170 51 70 58 97 35 122
-30 33 -60 25 -93 -23 -42 -60 -116 -125 -168 -149 -50 -22 -91 -18 -136 13
-14 11 -29 19 -33 19 -4 0 -19 -8 -33 -19 -49 -34 -87 -36 -146 -7 -49 24
-126 96 -169 160 -21 31 -50 33 -77 6z"/>
<path d="M580 485 c-19 -22 -4 -64 25 -71 31 -8 55 10 55 40 0 43 -53 63 -80
31z"/>
<path d="M1382 488 c-17 -17 -15 -53 3 -68 38 -31 96 27 65 65 -15 18 -51 20
-68 3z"/>
<path d="M692 424 c-49 -34 -6 -123 47 -94 21 11 41 40 41 59 0 15 -37 51 -53
51 -7 0 -23 -7 -35 -16z"/>
<path d="M1282 433 c-21 -8 -34 -51 -22 -73 18 -34 48 -44 76 -25 56 36 8 123
-54 98z"/>
<path d="M974 375 c-27 -66 -12 -174 27 -195 42 -23 81 71 64 157 -10 55 -23
73 -51 73 -19 0 -28 -8 -40 -35z"/>
<path d="M811 364 c-55 -69 10 -155 69 -92 22 24 27 87 8 106 -20 20 -55 13
-77 -14z"/>
<path d="M1142 378 c-23 -23 -9 -99 22 -120 21 -14 55 -8 66 11 34 65 -40 157
-88 109z"/>
</g>
</svg>
